<svg width="3824" height="2990" viewBox="0 0 3824 2990" fill="none" xmlns="http://www.w3.org/2000/svg">
<path d="M31.0627 -189.838C34.3921 -191.259 37.7393 -192.647 41.104 -194H429.896C433.261 -192.647 436.608 -191.259 439.937 -189.838H31.0627Z" fill="black"/>
<path d="M-47.1725 -148.22C-45.0035 -149.623 -42.8235 -151.01 -40.6325 -152.382H511.633C513.824 -151.01 516.004 -149.623 518.173 -148.22H-47.1725Z" fill="black"/>
<path d="M-102.97 -106.602C-101.336 -107.999 -99.6931 -109.386 -98.0418 -110.763H569.042C570.693 -109.386 572.336 -107.999 573.97 -106.602H-102.97Z" fill="black"/>
<path d="M-146.332 -64.9834C-145.037 -66.3778 -143.734 -67.7651 -142.424 -69.1452H613.424C614.734 -67.7651 616.037 -66.3778 617.332 -64.9834H-146.332Z" fill="black"/>
<path d="M-181.147 -23.3651C-180.1 -24.7579 -179.046 -26.1452 -177.985 -27.527H648.985C650.046 -26.1452 651.1 -24.7579 652.147 -23.3651H-181.147Z" fill="black"/>
<path d="M-209.405 18.2531C-208.555 16.8615 -207.699 15.4742 -206.837 14.0913H677.837C678.699 15.4742 679.556 16.8615 680.405 18.2531H-209.405Z" fill="black"/>
<path d="M-232.273 59.8714C-231.59 58.4806 -230.901 57.0933 -230.205 55.7095H701.205C701.901 57.0933 702.59 58.4806 703.273 59.8714H-232.273Z" fill="black"/>
<path d="M-250.496 101.49C-249.959 100.099 -249.416 98.7122 -248.867 97.3278H719.867C720.416 98.7122 720.959 100.099 721.496 101.49H-250.496Z" fill="black"/>
<path d="M-264.572 143.108C-264.167 141.718 -263.757 140.331 -263.34 138.946H734.34C734.757 140.331 735.167 141.718 735.572 143.108H-264.572Z" fill="black"/>
<path d="M-274.844 184.726C-274.562 183.337 -274.274 181.95 -273.981 180.564H744.981C745.274 181.95 745.562 183.337 745.844 184.726H-274.844Z" fill="black"/>
<path d="M-281.551 226.344C-281.384 224.955 -281.213 223.568 -281.035 222.183H752.036C752.213 223.568 752.384 224.955 752.551 226.344H-281.551Z" fill="black"/>
<path d="M-284.853 267.963C-284.798 266.574 -284.738 265.187 -284.672 263.801H755.672C755.738 265.187 755.798 266.574 755.853 267.963H-284.853Z" fill="black"/>
<path d="M-284.853 309.581C-284.907 308.195 -284.956 306.808 -285 305.419H756C755.956 306.808 755.907 308.195 755.853 309.581H-284.853Z" fill="black"/>
<path d="M-281.551 351.199C-281.717 349.814 -281.877 348.426 -282.032 347.037H753.032C752.877 348.426 752.717 349.814 752.551 351.199H-281.551Z" fill="black"/>
<path d="M-274.844 392.817C-275.126 391.432 -275.402 390.045 -275.672 388.656H746.672C746.402 390.045 746.126 391.432 745.844 392.817H-274.844Z" fill="black"/>
<path d="M-264.572 434.436C-264.976 433.051 -265.374 431.664 -265.766 430.274H736.766C736.374 431.664 735.976 433.051 735.572 434.436H-264.572Z" fill="black"/>
<path d="M-250.496 476.054C-251.031 474.67 -251.56 473.282 -252.084 471.892H723.084C722.56 473.282 722.031 474.67 721.496 476.054H-250.496Z" fill="black"/>
<path d="M-232.273 517.672C-232.953 516.288 -233.627 514.901 -234.295 513.51H705.295C704.627 514.901 703.953 516.288 703.273 517.672H-232.273Z" fill="black"/>
<path d="M-209.405 559.29C-210.25 557.907 -211.088 556.52 -211.92 555.129H682.92C682.088 556.52 681.25 557.907 680.405 559.29H-209.405Z" fill="black"/>
<path d="M-181.147 600.909C-182.186 599.527 -183.219 598.139 -184.244 596.747H655.245C654.219 598.139 653.187 599.527 652.147 600.909H-181.147Z" fill="black"/>
<path d="M-146.332 642.527C-147.614 641.147 -148.889 639.759 -150.156 638.365H621.156C619.889 639.759 618.614 641.147 617.332 642.527H-146.332Z" fill="black"/>
<path d="M-102.97 684.145C-104.581 682.768 -106.183 681.38 -107.777 679.983H578.777C577.183 681.38 575.581 682.768 573.97 684.145H-102.97Z" fill="black"/>
<path d="M-47.1725 725.763C-49.294 724.391 -51.4049 723.004 -53.505 721.602H524.505C522.405 723.004 520.294 724.391 518.173 725.763H-47.1725Z" fill="black"/>
<path d="M31.0627 767.382C27.884 766.025 24.7216 764.638 21.5759 763.22H449.424C446.278 764.638 443.116 766.025 439.937 767.382H31.0627Z" fill="black"/>
<path d="M301.685 804.838C280.011 807.585 257.921 809 235.5 809C213.079 809 190.989 807.585 169.315 804.838H301.685Z" fill="black"/>
<path d="M3366.06 2126.16C3369.39 2124.74 3372.74 2123.35 3376.1 2122H3764.9C3768.26 2123.35 3771.61 2124.74 3774.94 2126.16H3366.06Z" fill="black"/>
<path d="M3287.83 2167.78C3290 2166.38 3292.18 2164.99 3294.37 2163.62H3846.63C3848.82 2164.99 3851 2166.38 3853.17 2167.78H3287.83Z" fill="black"/>
<path d="M3232.03 2209.4C3233.66 2208 3235.31 2206.61 3236.96 2205.24H3904.04C3905.69 2206.61 3907.34 2208 3908.97 2209.4H3232.03Z" fill="black"/>
<path d="M3188.67 2251.02C3189.96 2249.62 3191.27 2248.23 3192.58 2246.85H3948.42C3949.73 2248.23 3951.04 2249.62 3952.33 2251.02H3188.67Z" fill="black"/>
<path d="M3153.85 2292.63C3154.9 2291.24 3155.95 2289.85 3157.01 2288.47H3983.99C3985.05 2289.85 3986.1 2291.24 3987.15 2292.63H3153.85Z" fill="black"/>
<path d="M3125.59 2334.25C3126.44 2332.86 3127.3 2331.47 3128.16 2330.09H4012.84C4013.7 2331.47 4014.56 2332.86 4015.41 2334.25H3125.59Z" fill="black"/>
<path d="M3102.73 2375.87C3103.41 2374.48 3104.1 2373.09 3104.79 2371.71H4036.21C4036.9 2373.09 4037.59 2374.48 4038.27 2375.87H3102.73Z" fill="black"/>
<path d="M3084.5 2417.49C3085.04 2416.1 3085.58 2414.71 3086.13 2413.33H4054.87C4055.42 2414.71 4055.96 2416.1 4056.5 2417.49H3084.5Z" fill="black"/>
<path d="M3070.43 2459.11C3070.83 2457.72 3071.24 2456.33 3071.66 2454.95H4069.34C4069.76 2456.33 4070.17 2457.72 4070.57 2459.11H3070.43Z" fill="black"/>
<path d="M3060.16 2500.73C3060.44 2499.34 3060.73 2497.95 3061.02 2496.56H4079.98C4080.27 2497.95 4080.56 2499.34 4080.84 2500.73H3060.16Z" fill="black"/>
<path d="M3053.45 2542.34C3053.62 2540.96 3053.79 2539.57 3053.96 2538.18H4087.04C4087.21 2539.57 4087.38 2540.96 4087.55 2542.34H3053.45Z" fill="black"/>
<path d="M3050.15 2583.96C3050.2 2582.57 3050.26 2581.19 3050.33 2579.8H4090.67C4090.74 2581.19 4090.8 2582.57 4090.85 2583.96H3050.15Z" fill="black"/>
<path d="M3050.15 2625.58C3050.09 2624.2 3050.04 2622.81 3050 2621.42H4091C4090.96 2622.81 4090.91 2624.2 4090.85 2625.58H3050.15Z" fill="black"/>
<path d="M3053.45 2667.2C3053.28 2665.81 3053.12 2664.43 3052.97 2663.04H4088.03C4087.88 2664.43 4087.72 2665.81 4087.55 2667.2H3053.45Z" fill="black"/>
<path d="M3060.16 2708.82C3059.87 2707.43 3059.6 2706.04 3059.33 2704.66H4081.67C4081.4 2706.04 4081.13 2707.43 4080.84 2708.82H3060.16Z" fill="black"/>
<path d="M3070.43 2750.44C3070.02 2749.05 3069.63 2747.66 3069.23 2746.27H4071.77C4071.37 2747.66 4070.98 2749.05 4070.57 2750.44H3070.43Z" fill="black"/>
<path d="M3084.5 2792.05C3083.97 2790.67 3083.44 2789.28 3082.92 2787.89H4058.08C4057.56 2789.28 4057.03 2790.67 4056.5 2792.05H3084.5Z" fill="black"/>
<path d="M3102.73 2833.67C3102.05 2832.29 3101.37 2830.9 3100.71 2829.51H4040.29C4039.63 2830.9 4038.95 2832.29 4038.27 2833.67H3102.73Z" fill="black"/>
<path d="M3125.59 2875.29C3124.75 2873.91 3123.91 2872.52 3123.08 2871.13H4017.92C4017.09 2872.52 4016.25 2873.91 4015.41 2875.29H3125.59Z" fill="black"/>
<path d="M3153.85 2916.91C3152.81 2915.53 3151.78 2914.14 3150.76 2912.75H3990.24C3989.22 2914.14 3988.19 2915.53 3987.15 2916.91H3153.85Z" fill="black"/>
<path d="M3188.67 2958.53C3187.39 2957.15 3186.11 2955.76 3184.84 2954.37H3956.16C3954.89 2955.76 3953.61 2957.15 3952.33 2958.53H3188.67Z" fill="black"/>
<path d="M3232.03 3000.15C3230.42 2998.77 3228.82 2997.38 3227.22 2995.98H3913.78C3912.18 2997.38 3910.58 2998.77 3908.97 3000.15H3232.03Z" fill="black"/>
<path d="M3287.83 3041.76C3285.71 3040.39 3283.6 3039 3281.5 3037.6H3859.51C3857.4 3039 3855.29 3040.39 3853.17 3041.76H3287.83Z" fill="black"/>
<path d="M3366.06 3083.38C3362.88 3082.03 3359.72 3080.64 3356.58 3079.22H3784.42C3781.28 3080.64 3778.12 3082.03 3774.94 3083.38H3366.06Z" fill="black"/>
<path d="M3636.69 3120.84C3615.01 3123.58 3592.92 3125 3570.5 3125C3548.08 3125 3525.99 3123.58 3504.31 3120.84H3636.69Z" fill="black"/>
</svg>
